<svg width="81" height="81" viewBox="0 0 81 81" fill="none" xmlns="http://www.w3.org/2000/svg">
<g id="facebook-svgrepo-com 1">
<path id="Vector" d="M78.2243 40.4938C78.0924 19.6623 61.1004 2.88015 40.2664 3.00956C19.4324 3.13898 2.6477 20.1335 2.77712 40.9675C2.89361 59.7211 16.675 75.1924 34.6191 78.0016L34.8357 78.0305L34.6719 51.6723L25.0926 51.7318L25.0249 40.8242L34.6042 40.7647L34.5526 32.4583C34.5022 32.0385 34.474 31.5506 34.4709 31.0576C34.4252 23.7046 40.3501 17.7056 47.7032 17.6599C48.0579 17.6577 48.4101 17.6706 48.76 17.6936L48.7147 17.6914C51.7311 17.7154 54.6508 17.9639 57.5014 18.4217L57.164 18.376L57.2217 27.6585L52.4622 27.688C52.2457 27.6592 51.9965 27.6431 51.745 27.6447C48.7338 27.6634 46.3064 30.1187 46.3251 33.1323C46.3261 33.3034 46.3347 33.4719 46.3509 33.6403L46.3482 33.6177L46.3922 40.6915L56.8545 40.6265L55.2494 51.5445L46.4599 51.5991L46.6237 77.9573C64.7502 74.8913 78.3383 59.2474 78.2243 40.4938Z" fill="black"/>
</g>
</svg>
