<svg width="59" height="57" viewBox="0 0 59 57" fill="none" xmlns="http://www.w3.org/2000/svg">
<g id="&#240;&#159;&#166;&#134; icon &#34;Instagram&#34;">
<path id="Vector" d="M29.4264 13.8104C21.0779 13.8104 14.344 20.2997 14.344 28.345C14.344 36.3903 21.0779 42.8796 29.4264 42.8796C37.7749 42.8796 44.5088 36.3903 44.5088 28.345C44.5088 20.2997 37.7749 13.8104 29.4264 13.8104ZM29.4264 37.7944C24.0314 37.7944 19.6209 33.5567 19.6209 28.345C19.6209 23.1333 24.0183 18.8956 29.4264 18.8956C34.8346 18.8956 39.2319 23.1333 39.2319 28.345C39.2319 33.5567 34.8214 37.7944 29.4264 37.7944ZM48.6437 13.2159C48.6437 15.1007 47.0685 16.606 45.1258 16.606C43.1699 16.606 41.6078 15.088 41.6078 13.2159C41.6078 11.3437 43.183 9.82572 45.1258 9.82572C47.0685 9.82572 48.6437 11.3437 48.6437 13.2159ZM58.633 16.6566C58.4098 12.1153 57.3334 8.0927 53.8812 4.77845C50.442 1.46421 46.2678 0.42693 41.5553 0.199234C36.6985 -0.0664114 22.1412 -0.0664114 17.2844 0.199234C12.5851 0.41428 8.41083 1.45156 4.95855 4.76581C1.50627 8.08005 0.443021 12.1027 0.206743 16.6439C-0.0689143 21.3244 -0.0689143 35.353 0.206743 40.0334C0.429894 44.5747 1.50627 48.5973 4.95855 51.9115C8.41083 55.2258 12.5719 56.2631 17.2844 56.4908C22.1412 56.7564 36.6985 56.7564 41.5553 56.4908C46.2678 56.2757 50.442 55.2384 53.8812 51.9115C57.3203 48.5973 58.3967 44.5747 58.633 40.0334C58.9086 35.353 58.9086 21.337 58.633 16.6566ZM52.3585 45.0554C51.3346 47.5347 49.3525 49.4448 46.7666 50.4442C42.8942 51.9242 33.7057 51.5826 29.4264 51.5826C25.1472 51.5826 15.9455 51.9115 12.0863 50.4442C9.51346 49.4575 7.53135 47.5474 6.49436 45.0554C4.95855 41.3237 5.31297 32.4688 5.31297 28.345C5.31297 24.2212 4.97168 15.3537 6.49436 11.6346C7.51823 9.15528 9.50033 7.24516 12.0863 6.24583C15.9586 4.7658 25.1472 5.10735 29.4264 5.10735C33.7057 5.10735 42.9074 4.77845 46.7666 6.24583C49.3394 7.23251 51.3215 9.14263 52.3585 11.6346C53.8943 15.3663 53.5399 24.2212 53.5399 28.345C53.5399 32.4688 53.8943 41.3363 52.3585 45.0554Z" fill="black"/>
</g>
</svg>
