<svg width="73" height="58" viewBox="0 0 73 58" fill="none" xmlns="http://www.w3.org/2000/svg">
<g id="&#240;&#159;&#166;&#134; icon &#34;Twitter&#34;">
<path id="Vector" d="M65.4963 14.3738C65.5426 15.0046 65.5426 15.6355 65.5426 16.2663C65.5426 35.5064 50.4888 57.6755 22.9747 57.6755C14.4981 57.6755 6.62377 55.2873 0 51.1421C1.20436 51.2771 2.36224 51.3222 3.61294 51.3222C10.6071 51.3222 17.0457 49.0243 22.1872 45.1041C15.6098 44.9689 10.0977 40.7784 8.19855 35.0108C9.12502 35.1459 10.0514 35.2361 11.0242 35.2361C12.3674 35.2361 13.7108 35.0558 14.9613 34.7405C8.10601 33.3886 2.96435 27.531 2.96435 20.4568V20.2766C4.95603 21.358 7.27222 22.0339 9.72699 22.1239C5.69715 19.5104 3.05703 15.0496 3.05703 10.003C3.05703 7.29951 3.79801 4.82126 5.09504 2.65841C12.4599 11.49 23.5304 17.2574 35.944 17.8884C35.7125 16.8069 35.5735 15.6806 35.5735 14.5541C35.5735 6.53348 42.2436 0 50.5348 0C54.8425 0 58.7334 1.7573 61.4663 4.59602C64.8475 3.96522 68.0899 2.74857 70.9619 1.08142C69.8501 4.46093 67.4878 7.29965 64.3845 9.10188C67.3953 8.78662 70.3134 7.97538 72.9999 6.84902C70.9622 9.73268 68.4144 12.3009 65.4963 14.3738Z" fill="black"/>
</g>
</svg>
